  <svg xmlns="http://www.w3.org/2000/svg" width="208" height="80" viewBox="0 0 208 80" fill="none">
          <path d="M89.0739 20.7263C89.2528 19.9023 89.4932 19.1208 89.7947 18.382C90.1056 17.6434 90.5154 16.9991 91.0243 16.45C91.5331 15.9005 92.1596 15.4647 92.9038 15.1429C93.6482 14.8207 94.5479 14.6598 95.6032 14.6598C96.4039 14.6598 97.0729 14.7544 97.6101 14.9438C98.147 15.1332 98.5756 15.3937 98.8962 15.7252C99.2258 16.0568 99.4568 16.4547 99.5885 16.9187C99.7299 17.3829 99.8005 17.8848 99.8005 18.4246C99.8005 18.7846 99.7724 19.1587 99.7159 19.547C99.6687 19.9261 99.6026 20.319 99.518 20.7263L97.3557 30.7851C97.1765 31.6091 96.9364 32.3906 96.6349 33.1294C96.3334 33.8683 95.9282 34.5123 95.4194 35.0617C94.9106 35.6109 94.2841 36.0467 93.5399 36.3688C92.8048 36.6907 91.9098 36.8516 90.8545 36.8516C90.0538 36.8516 89.3848 36.757 88.8479 36.5676C88.3107 36.3782 87.8774 36.1177 87.5475 35.7862C87.2272 35.4452 86.9965 35.0473 86.8551 34.5927C86.7231 34.1287 86.6572 33.6219 86.6572 33.0725C86.6572 32.7127 86.6807 32.3433 86.7278 31.9645C86.7749 31.576 86.8411 31.183 86.9257 30.7851L89.0739 20.7263ZM94.8965 17.97C94.5007 17.97 94.1664 18.0504 93.893 18.2116C93.6292 18.3632 93.4032 18.5667 93.2147 18.8225C93.0358 19.0783 92.8897 19.3719 92.7767 19.7035C92.6731 20.0347 92.5835 20.3759 92.5082 20.7263L90.3459 30.771C90.2988 31.0077 90.2564 31.2397 90.2186 31.467C90.1808 31.6943 90.1621 31.9122 90.1621 32.1207C90.1621 32.5186 90.2564 32.8546 90.4449 33.1294C90.6425 33.3946 91.0102 33.527 91.5471 33.527C91.9523 33.527 92.2866 33.4513 92.5504 33.2998C92.8238 33.1482 93.0498 32.9447 93.229 32.6889C93.4173 32.4331 93.5633 32.1395 93.667 31.808C93.78 31.4767 93.8742 31.1308 93.9498 30.771L96.0977 20.7404C96.1449 20.5037 96.1873 20.2717 96.2251 20.0444C96.2628 19.8171 96.2816 19.5945 96.2816 19.3766C96.2816 19.1778 96.2579 18.9931 96.2107 18.8225C96.1732 18.6519 96.1024 18.5053 95.9988 18.382C95.8951 18.2495 95.754 18.15 95.5749 18.0836C95.396 18.0079 95.1697 17.97 94.8965 17.97Z" fill="white"/>
          <path d="M89.0739 20.7263C89.2528 19.9023 89.4932 19.1208 89.7947 18.382C90.1056 17.6434 90.5154 16.9991 91.0243 16.45C91.5331 15.9005 92.1596 15.4647 92.9038 15.1429C93.6482 14.8207 94.5479 14.6598 95.6032 14.6598C96.4039 14.6598 97.0729 14.7544 97.6101 14.9438C98.147 15.1332 98.5756 15.3937 98.8962 15.7252C99.2258 16.0568 99.4568 16.4547 99.5885 16.9187C99.7299 17.3829 99.8005 17.8848 99.8005 18.4246C99.8005 18.7846 99.7724 19.1587 99.7159 19.547C99.6687 19.9261 99.6026 20.319 99.518 20.7263L97.3557 30.7851C97.1765 31.6091 96.9364 32.3906 96.6349 33.1294C96.3334 33.8683 95.9282 34.5123 95.4194 35.0617C94.9106 35.6109 94.2841 36.0467 93.5399 36.3688C92.8048 36.6907 91.9098 36.8516 90.8545 36.8516C90.0538 36.8516 89.3848 36.757 88.8479 36.5676C88.3107 36.3782 87.8774 36.1177 87.5475 35.7862C87.2272 35.4452 86.9965 35.0473 86.8551 34.5927C86.7231 34.1287 86.6572 33.6219 86.6572 33.0725C86.6572 32.7127 86.6807 32.3433 86.7278 31.9645C86.7749 31.576 86.8411 31.183 86.9257 30.7851L89.0739 20.7263ZM94.8965 17.97C94.5007 17.97 94.1664 18.0504 93.893 18.2116C93.6292 18.3632 93.4032 18.5667 93.2147 18.8225C93.0358 19.0783 92.8897 19.3719 92.7767 19.7035C92.6731 20.0347 92.5835 20.3759 92.5082 20.7263L90.3459 30.771C90.2988 31.0077 90.2564 31.2397 90.2186 31.467C90.1808 31.6943 90.1621 31.9122 90.1621 32.1207C90.1621 32.5186 90.2564 32.8546 90.4449 33.1294C90.6425 33.3946 91.0102 33.527 91.5471 33.527C91.9523 33.527 92.2866 33.4513 92.5504 33.2998C92.8238 33.1482 93.0498 32.9447 93.229 32.6889C93.4173 32.4331 93.5633 32.1395 93.667 31.808C93.78 31.4767 93.8742 31.1308 93.9498 30.771L96.0977 20.7404C96.1449 20.5037 96.1873 20.2717 96.2251 20.0444C96.2628 19.8171 96.2816 19.5945 96.2816 19.3766C96.2816 19.1778 96.2579 18.9931 96.2107 18.8225C96.1732 18.6519 96.1024 18.5053 95.9988 18.382C95.8951 18.2495 95.754 18.15 95.5749 18.0836C95.396 18.0079 95.1697 17.97 94.8965 17.97Z" fill="url(#paint0_linear_6_12937)"/>
          <path d="M106.301 36.5678L105.326 28.853L101.2 36.5678H97.4121L103.857 25.3722L102.387 14.9583H106.132L106.937 21.8773L110.711 14.9583H114.442L108.393 25.3866L110.089 36.5678H106.301Z" fill="white"/>
          <path d="M106.301 36.5678L105.326 28.853L101.2 36.5678H97.4121L103.857 25.3722L102.387 14.9583H106.132L106.937 21.8773L110.711 14.9583H114.442L108.393 25.3866L110.089 36.5678H106.301Z" fill="url(#paint1_linear_6_12937)"/>
          <path d="M114.655 20.7263C114.834 19.9023 115.074 19.1208 115.376 18.382C115.687 17.6434 116.096 16.9991 116.605 16.45C117.114 15.9005 117.741 15.4647 118.485 15.1429C119.229 14.8207 120.129 14.6598 121.184 14.6598C121.985 14.6598 122.654 14.7544 123.191 14.9438C123.728 15.1332 124.157 15.3937 124.477 15.7252C124.807 16.0568 125.038 16.4547 125.17 16.9187C125.311 17.3829 125.382 17.8848 125.382 18.4246C125.382 18.7846 125.353 19.1587 125.297 19.547C125.25 19.9261 125.184 20.319 125.099 20.7263L122.936 30.7851C122.758 31.6091 122.517 32.3906 122.216 33.1294C121.914 33.8683 121.509 34.5123 121 35.0617C120.492 35.6109 119.865 36.0467 119.121 36.3688C118.386 36.6907 117.491 36.8516 116.436 36.8516C115.635 36.8516 114.966 36.757 114.429 36.5676C113.892 36.3782 113.458 36.1177 113.129 35.7862C112.808 35.4452 112.577 35.0473 112.436 34.5927C112.304 34.1287 112.238 33.6219 112.238 33.0725C112.238 32.7127 112.262 32.3433 112.309 31.9645C112.356 31.576 112.422 31.183 112.507 30.7851L114.655 20.7263ZM120.478 17.97C120.082 17.97 119.747 18.0504 119.474 18.2116C119.21 18.3632 118.984 18.5667 118.796 18.8225C118.617 19.0783 118.471 19.3719 118.357 19.7035C118.254 20.0347 118.165 20.3759 118.089 20.7263L115.927 30.771C115.88 31.0077 115.837 31.2397 115.8 31.467C115.762 31.6943 115.743 31.9122 115.743 32.1207C115.743 32.5186 115.837 32.8546 116.026 33.1294C116.224 33.3946 116.591 33.527 117.128 33.527C117.533 33.527 117.868 33.4513 118.131 33.2998C118.405 33.1482 118.631 32.9447 118.81 32.6889C118.998 32.4331 119.144 32.1395 119.248 31.808C119.361 31.4767 119.455 31.1308 119.531 30.771L121.679 20.7404C121.726 20.5037 121.768 20.2717 121.806 20.0444C121.844 19.8171 121.863 19.5945 121.863 19.3766C121.863 19.1778 121.839 18.9931 121.792 18.8225C121.754 18.6519 121.683 18.5053 121.58 18.382C121.476 18.2495 121.335 18.15 121.156 18.0836C120.977 18.0079 120.751 17.97 120.478 17.97Z" fill="white"/>
          <path d="M114.655 20.7263C114.834 19.9023 115.074 19.1208 115.376 18.382C115.687 17.6434 116.096 16.9991 116.605 16.45C117.114 15.9005 117.741 15.4647 118.485 15.1429C119.229 14.8207 120.129 14.6598 121.184 14.6598C121.985 14.6598 122.654 14.7544 123.191 14.9438C123.728 15.1332 124.157 15.3937 124.477 15.7252C124.807 16.0568 125.038 16.4547 125.17 16.9187C125.311 17.3829 125.382 17.8848 125.382 18.4246C125.382 18.7846 125.353 19.1587 125.297 19.547C125.25 19.9261 125.184 20.319 125.099 20.7263L122.936 30.7851C122.758 31.6091 122.517 32.3906 122.216 33.1294C121.914 33.8683 121.509 34.5123 121 35.0617C120.492 35.6109 119.865 36.0467 119.121 36.3688C118.386 36.6907 117.491 36.8516 116.436 36.8516C115.635 36.8516 114.966 36.757 114.429 36.5676C113.892 36.3782 113.458 36.1177 113.129 35.7862C112.808 35.4452 112.577 35.0473 112.436 34.5927C112.304 34.1287 112.238 33.6219 112.238 33.0725C112.238 32.7127 112.262 32.3433 112.309 31.9645C112.356 31.576 112.422 31.183 112.507 30.7851L114.655 20.7263ZM120.478 17.97C120.082 17.97 119.747 18.0504 119.474 18.2116C119.21 18.3632 118.984 18.5667 118.796 18.8225C118.617 19.0783 118.471 19.3719 118.357 19.7035C118.254 20.0347 118.165 20.3759 118.089 20.7263L115.927 30.771C115.88 31.0077 115.837 31.2397 115.8 31.467C115.762 31.6943 115.743 31.9122 115.743 32.1207C115.743 32.5186 115.837 32.8546 116.026 33.1294C116.224 33.3946 116.591 33.527 117.128 33.527C117.533 33.527 117.868 33.4513 118.131 33.2998C118.405 33.1482 118.631 32.9447 118.81 32.6889C118.998 32.4331 119.144 32.1395 119.248 31.808C119.361 31.4767 119.455 31.1308 119.531 30.771L121.679 20.7404C121.726 20.5037 121.768 20.2717 121.806 20.0444C121.844 19.8171 121.863 19.5945 121.863 19.3766C121.863 19.1778 121.839 18.9931 121.792 18.8225C121.754 18.6519 121.683 18.5053 121.58 18.382C121.476 18.2495 121.335 18.15 121.156 18.0836C120.977 18.0079 120.751 17.97 120.478 17.97Z" fill="url(#paint2_linear_6_12937)"/>
          <path d="M137.294 23.7526C137.068 24.7945 136.757 25.6658 136.362 26.3668C135.966 27.0581 135.495 27.6122 134.949 28.029C134.402 28.4363 133.78 28.7252 133.083 28.8958C132.395 29.0662 131.641 29.1513 130.822 29.1513H129.352L127.755 36.5678H124.335L128.985 14.9583H133.931C134.59 14.9583 135.184 15.0197 135.711 15.143C136.249 15.2661 136.706 15.4649 137.082 15.7397C137.459 16.0143 137.747 16.379 137.945 16.8336C138.152 17.2788 138.255 17.828 138.255 18.4817C138.255 19.0026 138.185 19.5947 138.044 20.2575L137.294 23.7526ZM134.609 20.2575C134.638 20.1156 134.661 19.9829 134.68 19.8598C134.699 19.7271 134.708 19.6088 134.708 19.5045C134.708 19.1069 134.59 18.8085 134.355 18.6094C134.129 18.4012 133.752 18.297 133.224 18.297H131.67L130.044 25.8553H131.472C131.83 25.8553 132.141 25.8174 132.404 25.7416C132.668 25.6658 132.895 25.5428 133.083 25.3722C133.271 25.2018 133.427 24.984 133.549 24.7188C133.672 24.4536 133.775 24.1268 133.86 23.7385L134.609 20.2575Z" fill="white"/>
          <path d="M137.294 23.7526C137.068 24.7945 136.757 25.6658 136.362 26.3668C135.966 27.0581 135.495 27.6122 134.949 28.029C134.402 28.4363 133.78 28.7252 133.083 28.8958C132.395 29.0662 131.641 29.1513 130.822 29.1513H129.352L127.755 36.5678H124.335L128.985 14.9583H133.931C134.59 14.9583 135.184 15.0197 135.711 15.143C136.249 15.2661 136.706 15.4649 137.082 15.7397C137.459 16.0143 137.747 16.379 137.945 16.8336C138.152 17.2788 138.255 17.828 138.255 18.4817C138.255 19.0026 138.185 19.5947 138.044 20.2575L137.294 23.7526ZM134.609 20.2575C134.638 20.1156 134.661 19.9829 134.68 19.8598C134.699 19.7271 134.708 19.6088 134.708 19.5045C134.708 19.1069 134.59 18.8085 134.355 18.6094C134.129 18.4012 133.752 18.297 133.224 18.297H131.67L130.044 25.8553H131.472C131.83 25.8553 132.141 25.8174 132.404 25.7416C132.668 25.6658 132.895 25.5428 133.083 25.3722C133.271 25.2018 133.427 24.984 133.549 24.7188C133.672 24.4536 133.775 24.1268 133.86 23.7385L134.609 20.2575Z" fill="url(#paint3_linear_6_12937)"/>
          <path d="M140.121 20.7263C140.3 19.9023 140.54 19.1208 140.842 18.382C141.152 17.6434 141.562 16.9991 142.071 16.45C142.58 15.9005 143.206 15.4647 143.951 15.1429C144.695 14.8207 145.595 14.6598 146.65 14.6598C147.451 14.6598 148.12 14.7544 148.657 14.9438C149.194 15.1332 149.623 15.3937 149.943 15.7252C150.273 16.0568 150.504 16.4547 150.635 16.9187C150.777 17.3829 150.847 17.8848 150.847 18.4246C150.847 18.7846 150.819 19.1587 150.763 19.547C150.716 19.9261 150.65 20.319 150.565 20.7263L148.403 30.7851C148.223 31.6091 147.983 32.3906 147.682 33.1294C147.38 33.8683 146.975 34.5123 146.466 35.0617C145.957 35.6109 145.331 36.0467 144.587 36.3688C143.852 36.6907 142.957 36.8516 141.902 36.8516C141.101 36.8516 140.432 36.757 139.895 36.5676C139.358 36.3782 138.924 36.1177 138.594 35.7862C138.274 35.4452 138.043 35.0473 137.902 34.5927C137.77 34.1287 137.704 33.6219 137.704 33.0725C137.704 32.7127 137.728 32.3433 137.775 31.9645C137.822 31.576 137.888 31.183 137.973 30.7851L140.121 20.7263ZM145.943 17.97C145.548 17.97 145.213 18.0504 144.94 18.2116C144.676 18.3632 144.45 18.5667 144.262 18.8225C144.083 19.0783 143.937 19.3719 143.824 19.7035C143.72 20.0347 143.63 20.3759 143.555 20.7263L141.393 30.771C141.346 31.0077 141.303 31.2397 141.265 31.467C141.228 31.6943 141.209 31.9122 141.209 32.1207C141.209 32.5186 141.303 32.8546 141.492 33.1294C141.69 33.3946 142.057 33.527 142.594 33.527C142.999 33.527 143.334 33.4513 143.598 33.2998C143.871 33.1482 144.097 32.9447 144.276 32.6889C144.464 32.4331 144.61 32.1395 144.714 31.808C144.827 31.4767 144.921 31.1308 144.997 30.771L147.145 20.7404C147.192 20.5037 147.234 20.2717 147.272 20.0444C147.31 19.8171 147.328 19.5945 147.328 19.3766C147.328 19.1778 147.305 18.9931 147.258 18.8225C147.22 18.6519 147.15 18.5053 147.046 18.382C146.942 18.2495 146.801 18.15 146.622 18.0836C146.443 18.0079 146.217 17.97 145.943 17.97Z" fill="white"/>
          <path d="M140.121 20.7263C140.3 19.9023 140.54 19.1208 140.842 18.382C141.152 17.6434 141.562 16.9991 142.071 16.45C142.58 15.9005 143.206 15.4647 143.951 15.1429C144.695 14.8207 145.595 14.6598 146.65 14.6598C147.451 14.6598 148.12 14.7544 148.657 14.9438C149.194 15.1332 149.623 15.3937 149.943 15.7252C150.273 16.0568 150.504 16.4547 150.635 16.9187C150.777 17.3829 150.847 17.8848 150.847 18.4246C150.847 18.7846 150.819 19.1587 150.763 19.547C150.716 19.9261 150.65 20.319 150.565 20.7263L148.403 30.7851C148.223 31.6091 147.983 32.3906 147.682 33.1294C147.38 33.8683 146.975 34.5123 146.466 35.0617C145.957 35.6109 145.331 36.0467 144.587 36.3688C143.852 36.6907 142.957 36.8516 141.902 36.8516C141.101 36.8516 140.432 36.757 139.895 36.5676C139.358 36.3782 138.924 36.1177 138.594 35.7862C138.274 35.4452 138.043 35.0473 137.902 34.5927C137.77 34.1287 137.704 33.6219 137.704 33.0725C137.704 32.7127 137.728 32.3433 137.775 31.9645C137.822 31.576 137.888 31.183 137.973 30.7851L140.121 20.7263ZM145.943 17.97C145.548 17.97 145.213 18.0504 144.94 18.2116C144.676 18.3632 144.45 18.5667 144.262 18.8225C144.083 19.0783 143.937 19.3719 143.824 19.7035C143.72 20.0347 143.63 20.3759 143.555 20.7263L141.393 30.771C141.346 31.0077 141.303 31.2397 141.265 31.467C141.228 31.6943 141.209 31.9122 141.209 32.1207C141.209 32.5186 141.303 32.8546 141.492 33.1294C141.69 33.3946 142.057 33.527 142.594 33.527C142.999 33.527 143.334 33.4513 143.598 33.2998C143.871 33.1482 144.097 32.9447 144.276 32.6889C144.464 32.4331 144.61 32.1395 144.714 31.808C144.827 31.4767 144.921 31.1308 144.997 30.771L147.145 20.7404C147.192 20.5037 147.234 20.2717 147.272 20.0444C147.31 19.8171 147.328 19.5945 147.328 19.3766C147.328 19.1778 147.305 18.9931 147.258 18.8225C147.22 18.6519 147.15 18.5053 147.046 18.382C146.942 18.2495 146.801 18.15 146.622 18.0836C146.443 18.0079 146.217 17.97 145.943 17.97Z" fill="url(#paint4_linear_6_12937)"/>
          <path d="M149.957 36.5678L154.607 14.9583H158.013L156.062 24.0084H159.963L161.913 14.9583H165.333L160.684 36.5678H157.278L159.256 27.333H155.356L153.377 36.5678H149.957Z" fill="white"/>
          <path d="M149.957 36.5678L154.607 14.9583H158.013L156.062 24.0084H159.963L161.913 14.9583H165.333L160.684 36.5678H157.278L159.256 27.333H155.356L153.377 36.5678H149.957Z" fill="url(#paint5_linear_6_12937)"/>
          <path d="M163.977 36.5678L168.626 14.9583H172.032L170.082 24.0084H173.983L175.933 14.9583H179.353L174.703 36.5678H171.297L173.276 27.333H169.375L167.397 36.5678H163.977Z" fill="white"/>
          <path d="M163.977 36.5678L168.626 14.9583H172.032L170.082 24.0084H173.983L175.933 14.9583H179.353L174.703 36.5678H171.297L173.276 27.333H169.375L167.397 36.5678H163.977Z" fill="url(#paint6_linear_6_12937)"/>
          <path d="M185.94 36.5678L189.077 22.5025L181.954 36.5678H177.997L182.661 14.9583H186.081L183.042 28.5831L189.727 14.9583H193.981L189.345 36.5678H185.94Z" fill="white"/>
          <path d="M185.94 36.5678L189.077 22.5025L181.954 36.5678H177.997L182.661 14.9583H186.081L183.042 28.5831L189.727 14.9583H193.981L189.345 36.5678H185.94Z" fill="url(#paint7_linear_6_12937)"/>
          <path d="M199.958 36.5679L203.096 22.5027L195.973 36.5679H192.016L196.679 14.9585H200.099L197.061 28.5833L203.745 14.9585H207.999L203.364 36.5679H199.958ZM207.915 10C207.792 10.5304 207.608 11.0275 207.364 11.4918C207.119 11.9558 206.803 12.3631 206.417 12.7137C206.03 13.0547 205.564 13.3246 205.017 13.5234C204.481 13.7225 203.854 13.8217 203.138 13.8217C202.535 13.8217 202.026 13.7554 201.612 13.6229C201.197 13.4808 200.858 13.2867 200.594 13.0403C200.34 12.7942 200.156 12.5052 200.043 12.1737C199.93 11.8422 199.873 11.4777 199.873 11.0798C199.873 10.9092 199.883 10.7341 199.902 10.5541C199.92 10.3741 199.949 10.1894 199.986 10H201.908C201.88 10.2273 201.866 10.4405 201.866 10.6393C201.866 10.8287 201.889 11.004 201.937 11.165C201.984 11.3165 202.069 11.4492 202.191 11.5629C202.314 11.6765 202.483 11.7664 202.7 11.8328C202.926 11.8897 203.209 11.9179 203.548 11.9179C203.953 11.9179 204.292 11.8753 204.565 11.7902C204.839 11.6953 205.065 11.5676 205.244 11.4066C205.423 11.2454 205.569 11.0466 205.682 10.8099C205.795 10.5729 205.898 10.3031 205.993 10H207.915Z" fill="white"/>
          <path d="M199.958 36.5679L203.096 22.5027L195.973 36.5679H192.016L196.679 14.9585H200.099L197.061 28.5833L203.745 14.9585H207.999L203.364 36.5679H199.958ZM207.915 10C207.792 10.5304 207.608 11.0275 207.364 11.4918C207.119 11.9558 206.803 12.3631 206.417 12.7137C206.03 13.0547 205.564 13.3246 205.017 13.5234C204.481 13.7225 203.854 13.8217 203.138 13.8217C202.535 13.8217 202.026 13.7554 201.612 13.6229C201.197 13.4808 200.858 13.2867 200.594 13.0403C200.34 12.7942 200.156 12.5052 200.043 12.1737C199.93 11.8422 199.873 11.4777 199.873 11.0798C199.873 10.9092 199.883 10.7341 199.902 10.5541C199.92 10.3741 199.949 10.1894 199.986 10H201.908C201.88 10.2273 201.866 10.4405 201.866 10.6393C201.866 10.8287 201.889 11.004 201.937 11.165C201.984 11.3165 202.069 11.4492 202.191 11.5629C202.314 11.6765 202.483 11.7664 202.7 11.8328C202.926 11.8897 203.209 11.9179 203.548 11.9179C203.953 11.9179 204.292 11.8753 204.565 11.7902C204.839 11.6953 205.065 11.5676 205.244 11.4066C205.423 11.2454 205.569 11.0466 205.682 10.8099C205.795 10.5729 205.898 10.3031 205.993 10H207.915Z" fill="url(#paint8_linear_6_12937)"/>
          <path d="M92.8895 65.5144L91.9143 57.7998L87.7877 65.5144H84L90.4444 54.3191L88.9748 43.9049H92.7197L93.5254 50.8239L97.2987 43.9049H101.03L94.981 54.3332L96.6769 65.5144H92.8895Z" fill="white"/>
          <path d="M92.8895 65.5144L91.9143 57.7998L87.7877 65.5144H84L90.4444 54.3191L88.9748 43.9049H92.7197L93.5254 50.8239L97.2987 43.9049H101.03L94.981 54.3332L96.6769 65.5144H92.8895Z" fill="url(#paint9_linear_6_12937)"/>
          <path d="M101.242 49.6719C101.421 48.8479 101.661 48.0665 101.963 47.3276C102.274 46.5888 102.683 45.9448 103.192 45.3953C103.701 44.8462 104.328 44.4104 105.072 44.0882C105.816 43.7664 106.716 43.6052 107.771 43.6052C108.572 43.6052 109.241 43.7 109.778 43.8894C110.315 44.0788 110.744 44.3393 111.064 44.6708C111.394 45.0024 111.624 45.4 111.757 45.8643C111.898 46.3283 111.968 46.8304 111.968 47.3702C111.968 47.7302 111.94 48.1043 111.884 48.4926C111.837 48.8714 111.771 49.2646 111.686 49.6719L109.524 59.7307C109.344 60.5548 109.104 61.3362 108.803 62.075C108.501 62.8136 108.096 63.4579 107.587 64.0071C107.079 64.5565 106.452 64.9923 105.708 65.3141C104.973 65.6363 104.078 65.7972 103.022 65.7972C102.222 65.7972 101.553 65.7026 101.016 65.513C100.479 65.3235 100.045 65.0631 99.7155 64.7318C99.3952 64.3906 99.1645 63.9929 99.0231 63.5384C98.8911 63.0741 98.8252 62.5675 98.8252 62.0181C98.8252 61.6581 98.8486 61.2886 98.8958 60.9098C98.9429 60.5216 99.0088 60.1284 99.0937 59.7307L101.242 49.6719ZM107.065 46.9156C106.669 46.9156 106.334 46.9961 106.061 47.157C105.797 47.3085 105.571 47.5123 105.383 47.7681C105.204 48.0239 105.058 48.3173 104.945 48.6488C104.841 48.9804 104.751 49.3213 104.676 49.6719L102.514 59.7164C102.467 59.9533 102.424 60.1853 102.387 60.4126C102.349 60.6399 102.33 60.8578 102.33 61.066C102.33 61.4639 102.424 61.8002 102.613 62.075C102.81 62.3402 103.178 62.4727 103.715 62.4727C104.12 62.4727 104.455 62.3969 104.718 62.2454C104.992 62.0938 105.218 61.8903 105.397 61.6345C105.585 61.3788 105.731 61.0851 105.835 60.7536C105.948 60.422 106.042 60.0764 106.118 59.7164L108.266 49.686C108.313 49.4493 108.355 49.2171 108.393 48.9898C108.431 48.7625 108.45 48.5399 108.45 48.3222C108.45 48.1232 108.426 47.9384 108.379 47.7681C108.341 47.5975 108.27 47.4507 108.167 47.3276C108.063 47.1949 107.922 47.0956 107.743 47.0292C107.564 46.9535 107.338 46.9156 107.065 46.9156Z" fill="white"/>
          <path d="M101.242 49.6719C101.421 48.8479 101.661 48.0665 101.963 47.3276C102.274 46.5888 102.683 45.9448 103.192 45.3953C103.701 44.8462 104.328 44.4104 105.072 44.0882C105.816 43.7664 106.716 43.6052 107.771 43.6052C108.572 43.6052 109.241 43.7 109.778 43.8894C110.315 44.0788 110.744 44.3393 111.064 44.6708C111.394 45.0024 111.624 45.4 111.757 45.8643C111.898 46.3283 111.968 46.8304 111.968 47.3702C111.968 47.7302 111.94 48.1043 111.884 48.4926C111.837 48.8714 111.771 49.2646 111.686 49.6719L109.524 59.7307C109.344 60.5548 109.104 61.3362 108.803 62.075C108.501 62.8136 108.096 63.4579 107.587 64.0071C107.079 64.5565 106.452 64.9923 105.708 65.3141C104.973 65.6363 104.078 65.7972 103.022 65.7972C102.222 65.7972 101.553 65.7026 101.016 65.513C100.479 65.3235 100.045 65.0631 99.7155 64.7318C99.3952 64.3906 99.1645 63.9929 99.0231 63.5384C98.8911 63.0741 98.8252 62.5675 98.8252 62.0181C98.8252 61.6581 98.8486 61.2886 98.8958 60.9098C98.9429 60.5216 99.0088 60.1284 99.0937 59.7307L101.242 49.6719ZM107.065 46.9156C106.669 46.9156 106.334 46.9961 106.061 47.157C105.797 47.3085 105.571 47.5123 105.383 47.7681C105.204 48.0239 105.058 48.3173 104.945 48.6488C104.841 48.9804 104.751 49.3213 104.676 49.6719L102.514 59.7164C102.467 59.9533 102.424 60.1853 102.387 60.4126C102.349 60.6399 102.33 60.8578 102.33 61.066C102.33 61.4639 102.424 61.8002 102.613 62.075C102.81 62.3402 103.178 62.4727 103.715 62.4727C104.12 62.4727 104.455 62.3969 104.718 62.2454C104.992 62.0938 105.218 61.8903 105.397 61.6345C105.585 61.3788 105.731 61.0851 105.835 60.7536C105.948 60.422 106.042 60.0764 106.118 59.7164L108.266 49.686C108.313 49.4493 108.355 49.2171 108.393 48.9898C108.431 48.7625 108.45 48.5399 108.45 48.3222C108.45 48.1232 108.426 47.9384 108.379 47.7681C108.341 47.5975 108.27 47.4507 108.167 47.3276C108.063 47.1949 107.922 47.0956 107.743 47.0292C107.564 46.9535 107.338 46.9156 107.065 46.9156Z" fill="url(#paint10_linear_6_12937)"/>
          <path d="M118.54 65.5131L122.469 47.2282H118.54L115.855 59.7734C115.638 60.7584 115.365 61.63 115.035 62.3876C114.715 63.1359 114.305 63.7658 113.806 64.2771C113.316 64.7792 112.717 65.158 112.011 65.4138C111.313 65.6696 110.484 65.7973 109.523 65.7973L110.23 62.4728C110.569 62.4728 110.857 62.4114 111.092 62.2881C111.328 62.165 111.53 61.9897 111.7 61.7624C111.869 61.5351 112.011 61.2558 112.124 60.9243C112.246 60.5834 112.355 60.1996 112.449 59.7734L115.855 43.8754L119.077 43.9036H126.595L121.946 65.5131H118.54Z" fill="white"/>
          <path d="M118.54 65.5131L122.469 47.2282H118.54L115.855 59.7734C115.638 60.7584 115.365 61.63 115.035 62.3876C114.715 63.1359 114.305 63.7658 113.806 64.2771C113.316 64.7792 112.717 65.158 112.011 65.4138C111.313 65.6696 110.484 65.7973 109.523 65.7973L110.23 62.4728C110.569 62.4728 110.857 62.4114 111.092 62.2881C111.328 62.165 111.53 61.9897 111.7 61.7624C111.869 61.5351 112.011 61.2558 112.124 60.9243C112.246 60.5834 112.355 60.1996 112.449 59.7734L115.855 43.8754L119.077 43.9036H126.595L121.946 65.5131H118.54Z" fill="url(#paint11_linear_6_12937)"/>
          <path d="M134.043 43.9041H141.406L137.463 62.1749H139.414L138.17 67.9999H134.764L135.287 65.5135H127.048L126.525 67.9999H123.104L124.348 62.1749H124.687C124.913 62.1749 125.149 62.0471 125.394 61.7913C125.639 61.5356 125.879 61.1899 126.115 60.7541C126.36 60.3183 126.6 59.8071 126.836 59.2197C127.081 58.6324 127.311 58.0122 127.528 57.3585C127.754 56.7051 127.971 56.0326 128.178 55.341C128.385 54.6403 128.574 53.9629 128.744 53.3095C128.922 52.6558 129.078 52.0356 129.21 51.4482C129.351 50.8609 129.469 50.3496 129.563 49.9139L130.863 43.89L134.043 43.9041ZM132.969 49.928C132.649 51.4341 132.333 52.8264 132.022 54.105C131.721 55.3742 131.396 56.5251 131.047 57.5576C130.699 58.5804 130.312 59.4802 129.888 60.2569C129.474 61.0337 128.993 61.673 128.447 62.1749H134.057L137.265 47.2286H133.549L132.969 49.928Z" fill="white"/>
          <path d="M134.043 43.9041H141.406L137.463 62.1749H139.414L138.17 67.9999H134.764L135.287 65.5135H127.048L126.525 67.9999H123.104L124.348 62.1749H124.687C124.913 62.1749 125.149 62.0471 125.394 61.7913C125.639 61.5356 125.879 61.1899 126.115 60.7541C126.36 60.3183 126.6 59.8071 126.836 59.2197C127.081 58.6324 127.311 58.0122 127.528 57.3585C127.754 56.7051 127.971 56.0326 128.178 55.341C128.385 54.6403 128.574 53.9629 128.744 53.3095C128.922 52.6558 129.078 52.0356 129.21 51.4482C129.351 50.8609 129.469 50.3496 129.563 49.9139L130.863 43.89L134.043 43.9041ZM132.969 49.928C132.649 51.4341 132.333 52.8264 132.022 54.105C131.721 55.3742 131.396 56.5251 131.047 57.5576C130.699 58.5804 130.312 59.4802 129.888 60.2569C129.474 61.0337 128.993 61.673 128.447 62.1749H134.057L137.265 47.2286H133.549L132.969 49.928Z" fill="url(#paint12_linear_6_12937)"/>
          <path d="M140.517 65.5144L145.166 43.9049H148.572L143.937 65.5144H140.517Z" fill="white"/>
          <path d="M140.517 65.5144L145.166 43.9049H148.572L143.937 65.5144H140.517Z" fill="url(#paint13_linear_6_12937)"/>
          <path d="M147.229 65.5144L151.878 43.9049H155.284L153.334 52.955H157.234L159.185 43.9049H162.605L157.955 65.5144H154.549L156.528 56.2796H152.627L150.649 65.5144H147.229Z" fill="white"/>
          <path d="M147.229 65.5144L151.878 43.9049H155.284L153.334 52.955H157.234L159.185 43.9049H162.605L157.955 65.5144H154.549L156.528 56.2796H152.627L150.649 65.5144H147.229Z" fill="url(#paint14_linear_6_12937)"/>
          <path d="M168.456 47.1717L164.513 65.5133H161.107L165.757 43.8472H174.83L174.124 47.1717H168.456Z" fill="white"/>
          <path d="M168.456 47.1717L164.513 65.5133H161.107L165.757 43.8472H174.83L174.124 47.1717H168.456Z" fill="url(#paint15_linear_6_12937)"/>
          <path d="M10.3474 17.9831L9.22266 21.3549H60.7339V20.4558V18.4326L58.9344 16.4096L54.8854 14.3864L51.0615 13.4873L48.362 13.9369L47.4624 13.4873L46.5627 11.9138L45.438 11.0146L44.0883 10.7899V10.1155L44.3133 8.99155L43.8632 8.09248L42.7385 6.96854L41.164 6.29413H39.5895L38.0149 6.96854H35.7656L34.191 7.64273L31.4916 9.89061L29.4672 9.44108L25.8681 8.99155L23.3939 8.09248L19.7948 6.96854H16.1956L15.0709 7.64273V8.54202V12.5883V13.0378L12.5967 14.3864L10.3474 17.9831Z" fill="#1263DC"/>
          <path d="M9.22266 22.7045V21.3559H61.1838V22.7045L59.834 25.8517L58.0345 26.7507L57.5846 28.5491L54.6604 30.797L51.0615 32.5953L48.8121 33.9439H51.0615L51.7361 36.6413V38.6646L48.8121 40.238L44.7631 41.5869L42.2887 41.362L40.9392 39.339C40.7142 38.6646 40.2194 37.2259 40.0393 36.8662C39.8595 36.5065 39.8145 35.5174 39.8145 35.0679L37.7899 33.4944V30.797L35.7656 29.673L35.0907 30.797L34.191 33.9439L32.6163 35.7423L29.2422 38.6646H26.3181L25.4182 36.6413L26.3181 33.9439L26.9928 31.4714L28.3425 29.673V27.6498L26.9928 26.3012L24.5186 25.1773L22.944 25.8517L16.4207 27.2003L14.6211 25.8517L12.3717 24.5028L9.22266 22.7045Z" fill="#E5E920"/>
          <path fill-rule="evenodd" clip-rule="evenodd" d="M59.112 25.5149C57.3938 25.9035 56.5009 26.3094 55.9829 28.0591C55.4637 29.8088 54.2961 29.825 53.6477 30.117C52.9992 30.4091 52.4149 31.235 51.7664 31.5596C51.118 31.8842 49.2042 32.3692 48.4592 32.8556C47.713 33.3406 45.5082 35.2532 47.9074 36.5816C50.3079 37.91 49.637 35.8585 50.5662 35.9449C51.4391 36.0264 51.4742 36.8411 51.0854 36.9702C50.6967 37.1004 50.5335 37.3599 50.6967 37.5217C50.8584 37.6832 50.9889 38.1709 50.3079 38.2673C49.6269 38.365 49.3347 37.9753 48.621 38.6232C47.9074 39.2711 47.422 39.3038 46.9028 39.3689C46.3837 39.4342 45.7352 40.017 45.2487 40.4393C44.762 40.8604 44.762 40.8604 44.762 40.8604C44.762 40.8604 42.038 41.3467 42.1345 39.3051C42.2174 37.5631 41.3884 38.0731 41.6154 37.2308C41.8424 36.3874 41.9716 35.4487 41.8097 34.8319C41.648 34.2167 39.9612 33.9572 39.8972 33.763C39.832 33.5686 38.3621 31.9368 38.4273 31.3115C38.4924 30.6849 39.0971 30.5558 39.2274 30.5119C39.3579 30.4692 40.3738 30.5983 40.5894 30.6195C40.8052 30.641 40.8139 30.2011 39.7116 28.8613L38.2555 28.6746L35.8199 28.0729L35.4436 28.652L33.0507 29.1684L33.7368 29.6245L34.429 30.2511C34.429 30.2511 34.2559 32.6713 33.7155 33.3619C33.1749 34.0536 30.8823 36.3436 29.672 36.4074V36.8323C29.672 36.8323 28.4831 37.6983 27.2502 37.6168C26.2782 37.5517 25.9635 35.8134 27.2829 34.4836C29.0952 32.6588 27.565 32.6951 28.1808 31.9368C28.6348 31.3779 29.0022 32.0446 29.2832 31.5922C29.5641 31.1385 30.1374 29.5695 29.2619 27.9175C28.3866 26.2645 29.218 26.3283 28.31 25.9072C27.402 25.4873 26.5142 24.986 25.7378 24.5687C24.8949 24.115 24.2027 23.9206 23.1217 24.3092C22.0406 24.6978 19.63 25.9837 17.2635 25.8871C17.1054 25.8809 16.9475 25.8708 16.7882 25.8583L16.0745 24.872L12.9604 23.9206L9.81371 22.4317C9.81371 22.4317 9.70338 22.3215 9.58561 22.1499L9.31584 21.4868C9.2983 21.3001 9.33602 21.107 9.47902 20.929C9.99816 20.2812 10.1273 19.276 10.8083 18.0127C11.4893 16.7493 12.82 14.2864 15.5113 13.735C15.5113 13.735 15.3635 13.77 15.2832 13.3817L16.2463 13.0332L15.396 8.64787C15.4212 8.30069 16.0783 7.27165 16.0695 7.27056C16.531 7.18771 17.4842 7.15132 18.5102 7.11757C20.2422 7.05993 21.5287 7.58376 23.311 8.30946C23.6445 8.44491 23.9882 8.58518 24.3569 8.7305C25.9773 9.36852 26.2205 9.37729 26.9417 9.406C27.2678 9.41871 27.713 9.43493 28.4642 9.52633C29.7159 9.678 30.3193 9.82726 30.7193 9.92502C31.063 10.0103 31.2711 10.0616 31.5784 10.0228C31.9947 9.97126 32.5077 9.50376 33.1597 8.91351C33.8734 8.26694 34.6812 7.53247 35.3409 7.39571C35.8587 7.28919 36.3252 7.27801 36.7782 7.26793C37.4791 7.2528 38.1413 7.23921 38.7207 6.82059C39.1109 6.5385 40.025 6.35549 41.0146 6.54859C41.8134 6.7053 42.9346 7.16141 43.7448 8.45368C44.1863 9.15921 43.992 9.70321 43.8352 10.1394C43.7386 10.4087 43.6557 10.6406 43.7626 10.8574C43.824 10.9804 43.9356 11.0693 44.0961 11.1193C44.4359 11.2271 44.7107 11.2447 44.9539 11.2609C45.6373 11.3061 46.0889 11.335 47.4597 13.9517L47.6891 13.8316C47.688 13.834 47.6867 13.8354 47.6867 13.8354C47.6867 13.8354 48.0179 15.3067 50.5686 14.7704C51.1845 14.64 52.45 14.8028 52.8713 15.6451C53.294 16.4874 54.7213 16.3583 55.337 16.3907C55.9529 16.4234 56.8609 17.104 57.8994 17.2004C58.9365 17.2981 60.5255 18.1078 60.4602 19.6633C60.3937 21.221 60.8302 25.1263 59.112 25.5149ZM73.7543 13.3365C72.2618 15.3354 70.511 18.4024 66.5079 18.222C69.2933 17.7444 74.0114 13.3803 74 7.5888C73.9976 6.16261 74 3.78629 72.445 0C69.7635 7.82201 63.4162 8.53258 58.7922 9.14409C51.31 10.1354 48.5283 12.8214 47.856 13.6136C46.4613 10.9727 45.8808 10.8098 44.984 10.7496C44.7596 10.7347 44.5276 10.7195 44.2477 10.6305C44.2365 10.6268 44.2277 10.6244 44.2227 10.6205C44.2264 10.5578 44.278 10.4162 44.3155 10.311C44.4786 9.85598 44.7508 9.09652 44.1764 8.18036C43.2695 6.73269 42.0079 6.22026 41.1098 6.04469C39.9235 5.81281 38.8826 6.06859 38.4172 6.40437C37.9671 6.72897 37.4352 6.74037 36.763 6.75527C36.309 6.76535 35.796 6.77675 35.2317 6.89313C34.4353 7.05861 33.5725 7.84195 32.8099 8.5339C32.3195 8.97883 31.7653 9.48249 31.5106 9.51384C31.2974 9.54014 31.1632 9.5077 30.8384 9.42748C30.4269 9.32578 29.8063 9.17302 28.5232 9.01762C27.7507 8.92359 27.293 8.90606 26.9581 8.89356C26.2846 8.86726 26.0815 8.85959 24.5425 8.25423C24.1775 8.11023 23.834 7.97105 23.5029 7.8356C21.7307 7.11384 20.3323 6.54354 18.4913 6.60491C16.3566 6.67636 15.4964 6.98585 15.4613 6.99965L15.5504 7.24294C10.9048 6.8105 4.08867 7.39571 1.55525 0C2.06027e-05 3.78629 0.00265175 6.16261 1.98528e-05 7.5888C-0.0111657 13.3803 4.70695 17.7444 7.49106 18.222C3.48904 18.4024 1.73707 15.3354 0.245883 13.3365C0.950793 25.9848 9.55798 25.8921 12.085 25.6591L12.1164 25.6841C8.31133 27.752 4.54136 26.4486 2.44571 24.0635C3.77504 31.1611 10.1914 33.7717 16.2439 30.4015C10.8823 35.5865 6.19046 32.145 3.79017 30.0707C7.74701 44.8485 17.498 38.266 19.5298 35.5865C17.952 40.8591 10.8171 41.3117 7.25024 38.7837C9.52157 45.2645 17.1745 47.048 21.2605 42.1978C21.5526 45.0717 16.9799 46.5943 14.1256 46.0102C17.0227 49.1223 24.0496 50.0937 26.6432 44.9399C27.2263 47.533 27.8108 49.4118 30.9237 50.6451C28.9671 52.4711 27.1612 52.3946 25.4103 53.366C24.7181 57.4065 29.4964 56.8014 29.1715 60.431C31.9609 59.912 32.5013 58.0546 34.2961 55.6345C34.4266 59.0699 30.8584 61.2744 29.6269 61.3395C31.7352 63.3611 33.9361 64.6019 35.2694 64.1256C35.4964 64.8062 35.7359 65.3476 34.1004 66.5671C31.7238 68.3393 31.7238 68.3393 33.4534 71.5365C35.1828 74.7336 35.5716 74.1721 36.9988 80C38.4259 74.1721 38.8148 74.7336 40.5444 71.5365C42.2751 68.338 42.2751 68.338 39.8972 66.5671C38.2617 65.3476 38.5012 64.8075 38.7282 64.1256C40.0614 64.6006 42.2626 63.3598 44.3721 61.3395C43.1392 61.2744 39.5724 59.071 39.7015 55.6345C41.4963 58.0546 42.0367 59.912 44.8261 60.431C44.5012 56.8014 49.2794 57.4065 48.5884 53.366C46.8364 52.3946 45.0316 52.4711 43.0752 50.6451C46.1881 49.4118 46.7723 47.533 47.3555 44.9399C49.9493 50.0937 56.9762 49.121 59.8733 46.0102C57.0201 46.5943 52.4463 45.0704 52.7397 42.1978C56.8258 47.048 64.4784 45.2659 66.7487 38.7837C63.1818 41.3117 56.0469 40.858 54.4691 35.5865C56.5009 38.266 66.2519 44.8485 70.2087 30.0707C67.8082 32.145 63.1177 35.5865 57.755 30.4015C63.8088 33.7717 70.2252 31.1598 71.5545 24.0635C69.4461 26.4611 65.6474 27.7658 61.8198 25.649C64.2203 25.8884 73.0407 26.1466 73.7543 13.3365Z" fill="white"/>
          <path fill-rule="evenodd" clip-rule="evenodd" d="M59.112 25.5149C57.3938 25.9035 56.5009 26.3094 55.9829 28.0591C55.4637 29.8088 54.2961 29.825 53.6477 30.117C52.9992 30.4091 52.4149 31.235 51.7664 31.5596C51.118 31.8842 49.2042 32.3692 48.4592 32.8556C47.713 33.3406 45.5082 35.2532 47.9074 36.5816C50.3079 37.91 49.637 35.8585 50.5662 35.9449C51.4391 36.0264 51.4742 36.8411 51.0854 36.9702C50.6967 37.1004 50.5335 37.3599 50.6967 37.5217C50.8584 37.6832 50.9889 38.1709 50.3079 38.2673C49.6269 38.365 49.3347 37.9753 48.621 38.6232C47.9074 39.2711 47.422 39.3038 46.9028 39.3689C46.3837 39.4342 45.7352 40.017 45.2487 40.4393C44.762 40.8604 44.762 40.8604 44.762 40.8604C44.762 40.8604 42.038 41.3467 42.1345 39.3051C42.2174 37.5631 41.3884 38.0731 41.6154 37.2308C41.8424 36.3874 41.9716 35.4487 41.8097 34.8319C41.648 34.2167 39.9612 33.9572 39.8972 33.763C39.832 33.5686 38.3621 31.9368 38.4273 31.3115C38.4924 30.6849 39.0971 30.5558 39.2274 30.5119C39.3579 30.4692 40.3738 30.5983 40.5894 30.6195C40.8052 30.641 40.8139 30.2011 39.7116 28.8613L38.2555 28.6746L35.8199 28.0729L35.4436 28.652L33.0507 29.1684L33.7368 29.6245L34.429 30.2511C34.429 30.2511 34.2559 32.6713 33.7155 33.3619C33.1749 34.0536 30.8823 36.3436 29.672 36.4074V36.8323C29.672 36.8323 28.4831 37.6983 27.2502 37.6168C26.2782 37.5517 25.9635 35.8134 27.2829 34.4836C29.0952 32.6588 27.565 32.6951 28.1808 31.9368C28.6348 31.3779 29.0022 32.0446 29.2832 31.5922C29.5641 31.1385 30.1374 29.5695 29.2619 27.9175C28.3866 26.2645 29.218 26.3283 28.31 25.9072C27.402 25.4873 26.5142 24.986 25.7378 24.5687C24.8949 24.115 24.2027 23.9206 23.1217 24.3092C22.0406 24.6978 19.63 25.9837 17.2635 25.8871C17.1054 25.8809 16.9475 25.8708 16.7882 25.8583L16.0745 24.872L12.9604 23.9206L9.81371 22.4317C9.81371 22.4317 9.70338 22.3215 9.58561 22.1499L9.31584 21.4868C9.2983 21.3001 9.33602 21.107 9.47902 20.929C9.99816 20.2812 10.1273 19.276 10.8083 18.0127C11.4893 16.7493 12.82 14.2864 15.5113 13.735C15.5113 13.735 15.3635 13.77 15.2832 13.3817L16.2463 13.0332L15.396 8.64787C15.4212 8.30069 16.0783 7.27165 16.0695 7.27056C16.531 7.18771 17.4842 7.15132 18.5102 7.11757C20.2422 7.05993 21.5287 7.58376 23.311 8.30946C23.6445 8.44491 23.9882 8.58518 24.3569 8.7305C25.9773 9.36852 26.2205 9.37729 26.9417 9.406C27.2678 9.41871 27.713 9.43493 28.4642 9.52633C29.7159 9.678 30.3193 9.82726 30.7193 9.92502C31.063 10.0103 31.2711 10.0616 31.5784 10.0228C31.9947 9.97126 32.5077 9.50376 33.1597 8.91351C33.8734 8.26694 34.6812 7.53247 35.3409 7.39571C35.8587 7.28919 36.3252 7.27801 36.7782 7.26793C37.4791 7.2528 38.1413 7.23921 38.7207 6.82059C39.1109 6.5385 40.025 6.35549 41.0146 6.54859C41.8134 6.7053 42.9346 7.16141 43.7448 8.45368C44.1863 9.15921 43.992 9.70321 43.8352 10.1394C43.7386 10.4087 43.6557 10.6406 43.7626 10.8574C43.824 10.9804 43.9356 11.0693 44.0961 11.1193C44.4359 11.2271 44.7107 11.2447 44.9539 11.2609C45.6373 11.3061 46.0889 11.335 47.4597 13.9517L47.6891 13.8316C47.688 13.834 47.6867 13.8354 47.6867 13.8354C47.6867 13.8354 48.0179 15.3067 50.5686 14.7704C51.1845 14.64 52.45 14.8028 52.8713 15.6451C53.294 16.4874 54.7213 16.3583 55.337 16.3907C55.9529 16.4234 56.8609 17.104 57.8994 17.2004C58.9365 17.2981 60.5255 18.1078 60.4602 19.6633C60.3937 21.221 60.8302 25.1263 59.112 25.5149ZM73.7543 13.3365C72.2618 15.3354 70.511 18.4024 66.5079 18.222C69.2933 17.7444 74.0114 13.3803 74 7.5888C73.9976 6.16261 74 3.78629 72.445 0C69.7635 7.82201 63.4162 8.53258 58.7922 9.14409C51.31 10.1354 48.5283 12.8214 47.856 13.6136C46.4613 10.9727 45.8808 10.8098 44.984 10.7496C44.7596 10.7347 44.5276 10.7195 44.2477 10.6305C44.2365 10.6268 44.2277 10.6244 44.2227 10.6205C44.2264 10.5578 44.278 10.4162 44.3155 10.311C44.4786 9.85598 44.7508 9.09652 44.1764 8.18036C43.2695 6.73269 42.0079 6.22026 41.1098 6.04469C39.9235 5.81281 38.8826 6.06859 38.4172 6.40437C37.9671 6.72897 37.4352 6.74037 36.763 6.75527C36.309 6.76535 35.796 6.77675 35.2317 6.89313C34.4353 7.05861 33.5725 7.84195 32.8099 8.5339C32.3195 8.97883 31.7653 9.48249 31.5106 9.51384C31.2974 9.54014 31.1632 9.5077 30.8384 9.42748C30.4269 9.32578 29.8063 9.17302 28.5232 9.01762C27.7507 8.92359 27.293 8.90606 26.9581 8.89356C26.2846 8.86726 26.0815 8.85959 24.5425 8.25423C24.1775 8.11023 23.834 7.97105 23.5029 7.8356C21.7307 7.11384 20.3323 6.54354 18.4913 6.60491C16.3566 6.67636 15.4964 6.98585 15.4613 6.99965L15.5504 7.24294C10.9048 6.8105 4.08867 7.39571 1.55525 0C2.06027e-05 3.78629 0.00265175 6.16261 1.98528e-05 7.5888C-0.0111657 13.3803 4.70695 17.7444 7.49106 18.222C3.48904 18.4024 1.73707 15.3354 0.245883 13.3365C0.950793 25.9848 9.55798 25.8921 12.085 25.6591L12.1164 25.6841C8.31133 27.752 4.54136 26.4486 2.44571 24.0635C3.77504 31.1611 10.1914 33.7717 16.2439 30.4015C10.8823 35.5865 6.19046 32.145 3.79017 30.0707C7.74701 44.8485 17.498 38.266 19.5298 35.5865C17.952 40.8591 10.8171 41.3117 7.25024 38.7837C9.52157 45.2645 17.1745 47.048 21.2605 42.1978C21.5526 45.0717 16.9799 46.5943 14.1256 46.0102C17.0227 49.1223 24.0496 50.0937 26.6432 44.9399C27.2263 47.533 27.8108 49.4118 30.9237 50.6451C28.9671 52.4711 27.1612 52.3946 25.4103 53.366C24.7181 57.4065 29.4964 56.8014 29.1715 60.431C31.9609 59.912 32.5013 58.0546 34.2961 55.6345C34.4266 59.0699 30.8584 61.2744 29.6269 61.3395C31.7352 63.3611 33.9361 64.6019 35.2694 64.1256C35.4964 64.8062 35.7359 65.3476 34.1004 66.5671C31.7238 68.3393 31.7238 68.3393 33.4534 71.5365C35.1828 74.7336 35.5716 74.1721 36.9988 80C38.4259 74.1721 38.8148 74.7336 40.5444 71.5365C42.2751 68.338 42.2751 68.338 39.8972 66.5671C38.2617 65.3476 38.5012 64.8075 38.7282 64.1256C40.0614 64.6006 42.2626 63.3598 44.3721 61.3395C43.1392 61.2744 39.5724 59.071 39.7015 55.6345C41.4963 58.0546 42.0367 59.912 44.8261 60.431C44.5012 56.8014 49.2794 57.4065 48.5884 53.366C46.8364 52.3946 45.0316 52.4711 43.0752 50.6451C46.1881 49.4118 46.7723 47.533 47.3555 44.9399C49.9493 50.0937 56.9762 49.121 59.8733 46.0102C57.0201 46.5943 52.4463 45.0704 52.7397 42.1978C56.8258 47.048 64.4784 45.2659 66.7487 38.7837C63.1818 41.3117 56.0469 40.858 54.4691 35.5865C56.5009 38.266 66.2519 44.8485 70.2087 30.0707C67.8082 32.145 63.1177 35.5865 57.755 30.4015C63.8088 33.7717 70.2252 31.1598 71.5545 24.0635C69.4461 26.4611 65.6474 27.7658 61.8198 25.649C64.2203 25.8884 73.0407 26.1466 73.7543 13.3365Z" fill="url(#paint16_linear_6_12937)"/>
          <defs>
          <linearGradient id="paint0_linear_6_12937" x1="92.7421" y1="5.14882" x2="159.445" y2="91.9621" gradientUnits="userSpaceOnUse">
          <stop stop-color="#D8AE5E"/>
          <stop offset="1" stop-color="#F2D7A5"/>
          </linearGradient>
          <linearGradient id="paint1_linear_6_12937" x1="92.742" y1="5.14899" x2="159.445" y2="91.9622" gradientUnits="userSpaceOnUse">
          <stop stop-color="#D8AE5E"/>
          <stop offset="1" stop-color="#F2D7A5"/>
          </linearGradient>
          <linearGradient id="paint2_linear_6_12937" x1="92.743" y1="5.14882" x2="159.446" y2="91.9621" gradientUnits="userSpaceOnUse">
          <stop stop-color="#D8AE5E"/>
          <stop offset="1" stop-color="#F2D7A5"/>
          </linearGradient>
          <linearGradient id="paint3_linear_6_12937" x1="92.7422" y1="5.149" x2="159.445" y2="91.9622" gradientUnits="userSpaceOnUse">
          <stop stop-color="#D8AE5E"/>
          <stop offset="1" stop-color="#F2D7A5"/>
          </linearGradient>
          <linearGradient id="paint4_linear_6_12937" x1="92.742" y1="5.14882" x2="159.445" y2="91.9621" gradientUnits="userSpaceOnUse">
          <stop stop-color="#D8AE5E"/>
          <stop offset="1" stop-color="#F2D7A5"/>
          </linearGradient>
          <linearGradient id="paint5_linear_6_12937" x1="92.742" y1="5.149" x2="159.445" y2="91.9622" gradientUnits="userSpaceOnUse">
          <stop stop-color="#D8AE5E"/>
          <stop offset="1" stop-color="#F2D7A5"/>
          </linearGradient>
          <linearGradient id="paint6_linear_6_12937" x1="92.742" y1="5.149" x2="159.445" y2="91.9623" gradientUnits="userSpaceOnUse">
          <stop stop-color="#D8AE5E"/>
          <stop offset="1" stop-color="#F2D7A5"/>
          </linearGradient>
          <linearGradient id="paint7_linear_6_12937" x1="92.7428" y1="5.149" x2="159.446" y2="91.9622" gradientUnits="userSpaceOnUse">
          <stop stop-color="#D8AE5E"/>
          <stop offset="1" stop-color="#F2D7A5"/>
          </linearGradient>
          <linearGradient id="paint8_linear_6_12937" x1="92.7419" y1="5.14916" x2="159.445" y2="91.9624" gradientUnits="userSpaceOnUse">
          <stop stop-color="#D8AE5E"/>
          <stop offset="1" stop-color="#F2D7A5"/>
          </linearGradient>
          <linearGradient id="paint9_linear_6_12937" x1="75.5565" y1="5.14992" x2="142.26" y2="91.9632" gradientUnits="userSpaceOnUse">
          <stop stop-color="#D8AE5E"/>
          <stop offset="1" stop-color="#F2D7A5"/>
          </linearGradient>
          <linearGradient id="paint10_linear_6_12937" x1="75.5566" y1="5.14855" x2="142.26" y2="91.9618" gradientUnits="userSpaceOnUse">
          <stop stop-color="#D8AE5E"/>
          <stop offset="1" stop-color="#F2D7A5"/>
          </linearGradient>
          <linearGradient id="paint11_linear_6_12937" x1="75.5564" y1="5.14867" x2="142.26" y2="91.9619" gradientUnits="userSpaceOnUse">
          <stop stop-color="#D8AE5E"/>
          <stop offset="1" stop-color="#F2D7A5"/>
          </linearGradient>
          <linearGradient id="paint12_linear_6_12937" x1="75.5562" y1="5.14906" x2="142.26" y2="91.9623" gradientUnits="userSpaceOnUse">
          <stop stop-color="#D8AE5E"/>
          <stop offset="1" stop-color="#F2D7A5"/>
          </linearGradient>
          <linearGradient id="paint13_linear_6_12937" x1="75.5569" y1="5.14991" x2="142.26" y2="91.9632" gradientUnits="userSpaceOnUse">
          <stop stop-color="#D8AE5E"/>
          <stop offset="1" stop-color="#F2D7A5"/>
          </linearGradient>
          <linearGradient id="paint14_linear_6_12937" x1="75.5557" y1="5.14992" x2="142.259" y2="91.9632" gradientUnits="userSpaceOnUse">
          <stop stop-color="#D8AE5E"/>
          <stop offset="1" stop-color="#F2D7A5"/>
          </linearGradient>
          <linearGradient id="paint15_linear_6_12937" x1="75.5565" y1="5.14888" x2="142.26" y2="91.9622" gradientUnits="userSpaceOnUse">
          <stop stop-color="#D8AE5E"/>
          <stop offset="1" stop-color="#F2D7A5"/>
          </linearGradient>
          <linearGradient id="paint16_linear_6_12937" x1="4.83065" y1="-6.59264" x2="85.893" y2="39.995" gradientUnits="userSpaceOnUse">
          <stop stop-color="#D8AE5E"/>
          <stop offset="1" stop-color="#F2D7A5"/>
          </linearGradient>
          </defs>
          </svg>