<svg width="281" height="274" viewBox="0 0 281 274" fill="none" xmlns="http://www.w3.org/2000/svg">
<g clip-path="url(#clip0_263_5267)">
<path d="M28.4618 228.638C76.9139 245.283 114.482 245.569 135.043 243.632C110.77 237.977 64.0951 223.81 8.02783 190.36C12.8188 204.052 19.6729 216.916 28.4618 228.638Z" fill="#202020"/>
<path d="M163.378 1.47799C149.511 -0.523213 135.487 -0.492231 121.653 1.57323C87.0347 34.1973 69.9006 64.9463 62 83.0214C78.0235 65.232 110.928 33.1163 163.378 1.47799Z" fill="#202020"/>
<path d="M4.2202 108.403C1.39604 119.616 0 131.211 0 142.996C0 146.204 0.0951322 149.54 0.31749 152.906C86.4958 211.165 146.053 220.06 174.388 220.06H174.673C138.85 210.118 59.6525 180.988 4.2202 108.403Z" fill="#202020"/>
<path d="M63.0796 129.528C88.2094 103.766 149.417 50.2712 236.389 34.9914C225.569 25.5889 213.48 17.9008 200.344 12.0876C110.739 59.1332 75.9626 105.544 63.0796 129.528Z" fill="#202020"/>
<path d="M211.005 127.239C216.494 163.167 218.873 217.233 200.09 273.999C213.638 268.027 226.108 260.053 237.214 250.206C237.944 152.842 214.464 100.714 199.646 77.6201C203.358 89.5642 207.832 106.623 211.006 127.238L211.005 127.239Z" fill="#202020"/>
<path d="M240.767 98.0464C248.445 119.648 260.281 161.229 263.708 219.107C271.513 206.75 277.32 193.345 281 179.209C268.815 138.738 251.936 112.341 240.766 98.0464H240.767Z" fill="#202020"/>
</g>
<defs>
<clipPath id="clip0_263_5267">
<rect width="281" height="274" fill="white"/>
</clipPath>
</defs>
</svg>
